<?xml version="1.0" encoding="utf-8"?>
<!-- Generator: Adobe Illustrator 28.1.0, SVG Export Plug-In . SVG Version: 6.00 Build 0)  -->
<svg version="1.1" id="Layer_1" xmlns="http://www.w3.org/2000/svg" xmlns:xlink="http://www.w3.org/1999/xlink" x="0px" y="0px"
	 viewBox="0 0 255 75" style="enable-background:new 0 0 255 75;" xml:space="preserve">
<style type="text/css">
	.st0{fill-rule:evenodd;clip-rule:evenodd;fill:#F4A641;}
	.st1{fill:#F4A641;}
	.st2{fill:#FFFFFF;}
</style>
<g>
	<g>
		<path class="st0" d="M2.2,37.3C2.2,16.6,18.8,1.2,37.8,0.5C58.3-0.2,75.2,16.1,76,35.6c0.9,21.6-15.9,37.8-35.1,38.8
			C20.5,75.6,1.9,58.7,2.2,37.3z M38.9,3.4c-19,0-34,15.5-34,34.1c0,18.7,15.3,34.2,33.9,34.2c19.1,0,34.5-15.2,34.6-34
			C73.4,18.5,57.7,3.2,38.9,3.4z"/>
		<path class="st0" d="M11.8,37.1c0-16.3,13.3-26.5,26.6-26.7c14.8-0.2,27.3,11.8,27.3,26.4c0,15-11.2,26.5-25.9,27.1
			C25.5,64.5,11.9,53.3,11.8,37.1z M48.3,35.3c0.5-0.3,0.8-0.5,1.2-0.8c3.7-2.1,3.6-8,1.4-10.4c-1.4-1.5-3.2-2.2-5.2-2.6
			c-1.3-0.2-2.6-0.4-4-0.5c0-1.8,0-3.5,0-5.3c-1.4,0-2.6,0-4,0c0,1.7,0,3.5,0,5.2c-1.2,0-2.4,0-3.6,0c0-1.8,0-3.4,0-5.2
			c-1.3,0-2.6,0-4,0c0,1.7,0,3.5,0,5.2c-2.8,0-5.5,0-8.3,0c0,0.7,0,1.3,0,1.9c0.1,0.8,0.7,1.3,1.5,1.4c0.8,0,1.7,0,2.5,0.1
			c0.2,0,0.6,0.2,0.6,0.4c0.3,0.8,0.6,1.5,0.6,2.3c0,6.2,0,12.4,0,18.5c0,0.6-0.3,1.3-0.6,1.9c-0.2,0.4-0.5,0.6-1,0.5
			c-0.8-0.1-1.7,0-2.5,0c-0.7,0.1-1.2,0.5-1.2,1.2c0,0.8,0,1.6,0,2.5c2.8,0,5.5,0,8.3,0c0,2,0,3.9,0,5.9c1.3,0,2.6,0,4,0
			c0-2,0-3.9,0-5.8c1.2,0,2.4,0,3.6,0c0,2,0,3.9,0,5.9c1.4,0,2.6,0,4,0c0-2,0-3.9,0-5.8c0.3,0,0.6,0,0.9-0.1c2-0.4,4-0.6,6-1.1
			c2.1-0.5,3.9-1.6,5-3.5c2-3.3,1.6-9.2-4.1-11.4C49.2,35.6,48.8,35.5,48.3,35.3z"/>
		<path class="st1" d="M67.1,28.4c0.6-0.2,1.3-0.4,2-0.7c0.7,2.2,1.2,4.4,1.4,6.8c-0.8,0-1.6,0-2.3,0C67.9,32.5,67.5,30.5,67.1,28.4
			z"/>
		<path class="st2" d="M67.5,44.4c0.3-2,0.5-3.9,0.8-5.8c0.7,0.1,1.5,0.1,2.3,0.2c-0.1,2.1-0.5,4.2-1,6.3
			C68.9,44.8,68.2,44.6,67.5,44.4z"/>
		<path class="st2" d="M14.2,53.2c-0.6,0.4-1.2,0.9-1.8,1.3c-1.3-1.8-2.2-3.7-3-5.7c0.6-0.3,1.2-0.5,1.9-0.8
			C12.3,49.7,13.2,51.5,14.2,53.2z"/>
		<path class="st2" d="M58.2,62.5c-0.1-0.1-0.2-0.1-0.2-0.1c-0.3-0.5-0.9-1.1-0.8-1.6c0.1-0.5,0.8-0.9,1.2-1.3c1-1,2-1.9,3-2.9
			c0.5,0.4,1,0.9,1.6,1.3C61.6,59.6,60,61.1,58.2,62.5z"/>
		<path class="st2" d="M8.7,27.7c0.7,0.2,1.4,0.5,2,0.7c-0.4,2-0.8,3.9-1.2,5.9c-0.7,0-1.3,0-2.1,0C7.5,32,8,29.9,8.7,27.7z"/>
		<path class="st1" d="M66.3,48.4c0.7,0.3,1.4,0.6,2.2,1c-0.9,1.8-1.9,3.5-2.8,5.3c-0.7-0.5-1.3-0.9-1.9-1.3
			C64.6,51.7,65.4,50.1,66.3,48.4z"/>
		<path class="st1" d="M10.2,44.2c-0.6,0.2-1.3,0.4-2,0.7c-0.6-2.1-0.9-4.1-0.9-6.3c0.7,0,1.4,0,2.1,0C9.6,40.5,9.9,42.3,10.2,44.2z
			"/>
		<path class="st1" d="M60.4,17c-1.2-1.1-2.6-2.4-4-3.7c0.4-0.5,0.8-1.1,1.3-1.8c1.5,1.4,3,2.7,4.5,4C61.5,16.1,60.9,16.5,60.4,17z"
			/>
		<path class="st1" d="M20.6,60.5c-0.4,0.6-0.9,1.2-1.4,1.9c-1.4-1.4-2.8-2.9-4.3-4.4c0.6-0.5,1.1-1,1.6-1.4
			C17.9,57.9,19.2,59.2,20.6,60.5z"/>
		<path class="st2" d="M62.9,20.1c0.6-0.4,1.2-0.8,1.9-1.4c1,1.6,1.9,3.2,2.9,4.9c-0.8,0.4-1.4,0.7-2.1,1
			C64.7,23.1,63.8,21.6,62.9,20.1z"/>
		<path class="st2" d="M45.7,65.9c0.2,0.8,0.3,1.4,0.5,2.3c-1.8,0.2-3.4,0.5-5.3,0.7c0-0.8-0.1-1.6-0.1-2.3
			C42.4,66.4,44.1,66.1,45.7,65.9z"/>
		<path class="st1" d="M36.7,66.5c0,0.8,0,1.5,0,2.4c-1.7-0.2-3.4-0.5-5.1-0.7c0.1-0.8,0.2-1.5,0.4-2.3
			C33.6,66.1,35.1,66.3,36.7,66.5z"/>
		<path class="st2" d="M36.7,8c-1.6,0.3-3.1,0.5-4.7,0.8c-0.1-0.8-0.3-1.5-0.4-2.3c1.7-0.3,3.2-0.5,4.9-0.8
			C36.6,6.5,36.6,7.2,36.7,8z"/>
		<path class="st1" d="M40.6,5.6c1.7,0.3,3.3,0.5,5,0.7c-0.2,0.8-0.3,1.6-0.4,2.3c-1.6-0.2-3.1-0.5-4.6-0.7
			C40.6,7.3,40.6,6.5,40.6,5.6z"/>
		<path class="st2" d="M19.4,12.1c0.5,0.7,0.9,1.3,1.3,1.9c-1.2,1.1-2.3,2.1-3.5,3.2c-0.5-0.4-1-0.9-1.6-1.4
			C16.8,14.5,18.1,13.4,19.4,12.1z"/>
		<path class="st1" d="M12.7,19c0.7,0.5,1.3,1,1.8,1.4c-0.8,1.4-1.6,2.7-2.4,4.1c-0.6-0.3-1.3-0.6-2-0.9C11,22,11.8,20.5,12.7,19z"
			/>
		<path class="st1" d="M53.8,62.8c0.3,0.7,0.5,1.3,0.8,2.1c-1.5,0.7-2.9,1.4-4.4,2.1c-0.3-0.8-0.5-1.4-0.8-2.1
			C50.9,64.1,52.3,63.4,53.8,62.8z"/>
		<path class="st1" d="M28.1,9.9c-1.4,0.7-2.8,1.4-4.2,2.1c-0.3-0.6-0.6-1.3-0.9-2.1c1.5-0.7,2.9-1.4,4.4-2.1
			C27.6,8.6,27.8,9.2,28.1,9.9z"/>
		<path class="st2" d="M23.7,62.6c1.4,0.7,2.7,1.4,4.1,2c-0.2,0.7-0.4,1.4-0.6,2.2c-1.5-0.7-2.9-1.4-4.4-2.1
			C23.1,63.9,23.4,63.3,23.7,62.6z"/>
		<path class="st2" d="M49.7,7.6c1.5,0.6,2.9,1.3,4.4,1.9c-0.4,0.7-0.7,1.4-1.1,2.1c-1.3-0.6-2.6-1.2-4-1.8
			C49.2,9.1,49.4,8.4,49.7,7.6z"/>
		<path class="st2" d="M34.6,46.9c0-2.9,0-5.8,0-8.7c0,0,0.1-0.1,0.1-0.1c2.7,0,5.3-0.3,8,0.3c0.9,0.2,1.7,0.6,2.5,1.1
			c1.9,1.3,2.1,5-0.7,6.2c-1.4,0.6-2.9,0.8-4.3,0.9C38.3,46.8,36.5,46.8,34.6,46.9z"/>
		<path class="st2" d="M34.6,33c0-2.5,0-4.8,0-7.1c0.1,0,0.1-0.1,0.2-0.1c2.5-0.1,4.9-0.2,7.3,0.4c0.7,0.2,1.5,0.5,2.1,1
			c1.7,1.2,1.7,3.6-0.2,4.7c-0.7,0.4-1.6,0.8-2.4,0.9C39.3,32.9,37,32.9,34.6,33z"/>
	</g>
	<path class="st2" d="M116.2,60.3c-5.3-1.6-9.8-3.2-14.8-5.3c-0.8-0.3-1.7-0.5-2.6-0.6c-8.5-0.6-16.4-6.8-16.4-19
		c0-11.2,7.1-19.7,18.3-19.7c11.5,0,17.8,8.7,17.8,18.9c0,8.5-4,14.5-8.9,16.7v0.2c2.9,0.8,6.1,1.5,9.1,2.1L116.2,60.3z M109.5,34.9
		c0-6.8-3.2-12.5-9-12.5s-9.1,5.7-9.1,12.7c-0.1,7.1,3.4,12.6,9.1,12.6C106.2,47.7,109.5,42.3,109.5,34.9z"/>
	<path class="st2" d="M132.7,19c0,2.3-1.8,4.2-4.6,4.2c-2.7,0-4.5-1.9-4.4-4.2c-0.1-2.4,1.7-4.3,4.5-4.3
		C130.9,14.7,132.7,16.6,132.7,19z M124,53.8V26.6h8.5v27.2H124z"/>
	<path class="st2" d="M145.5,26.6l3.7,12.6c0.7,2.3,1.2,4.5,1.6,6.6h0.2c0.4-2.2,0.9-4.3,1.5-6.6l3.5-12.6h8.9l-10.1,27.2h-8.5
		l-9.9-27.2H145.5z"/>
	<path class="st2" d="M194.8,39.9c0,10-7.1,14.5-14.4,14.5c-8,0-14.1-5.2-14.1-14S172.1,26,180.9,26C189.2,26,194.8,31.7,194.8,39.9
		z M175.1,40.2c0,4.7,1.9,8.2,5.6,8.2c3.3,0,5.4-3.3,5.4-8.2c0-4.1-1.6-8.2-5.4-8.2C176.6,32,175.1,36.2,175.1,40.2z"/>
	<path class="st2" d="M205.1,26.6l2.7,4.5c0.8,1.4,1.5,2.8,2.2,4.1h0.1c0.7-1.4,1.4-2.8,2.1-4.2l2.4-4.4h9.2l-9,13l9.1,14.2h-9.6
		l-2.7-4.9c-0.8-1.3-1.4-2.7-2.1-4.1h-0.2c-0.7,1.4-1.4,2.8-2.1,4.1l-2.6,4.9h-9.3l9.2-13.9l-9-13.4H205.1z"/>
	<path class="st1" d="M234,26.6l2.7,4.5c0.8,1.4,1.5,2.8,2.2,4.1h0.1c0.7-1.4,1.4-2.8,2.1-4.2l2.4-4.4h9.2l-9,13l9.1,14.2h-9.6
		l-2.7-4.9c-0.8-1.3-1.4-2.7-2.1-4.1h-0.2c-0.7,1.4-1.4,2.8-2.1,4.1l-2.6,4.9h-9.3l9.2-13.9l-9-13.4H234z"/>
</g>
</svg>
