<?xml version="1.0" encoding="utf-8"?>
<!-- Generator: Adobe Illustrator 28.1.0, SVG Export Plug-In . SVG Version: 6.00 Build 0)  -->
<svg version="1.1" id="Layer_1" xmlns="http://www.w3.org/2000/svg" xmlns:xlink="http://www.w3.org/1999/xlink" x="0px" y="0px"
	 viewBox="0 0 153 55" style="enable-background:new 0 0 153 55;" xml:space="preserve">
<style type="text/css">
	.st0{fill-rule:evenodd;clip-rule:evenodd;fill:#F4A641;}
	.st1{fill:#F4A641;}
	.st2{fill:#FFFFFF;}
</style>
<g>
	<path class="st0" d="M0.1,27.4C0,12,12.4,0.5,26.5,0c15.3-0.5,27.8,11.5,28.4,26.1c0.7,16-11.8,28.1-26.1,28.9
		C13.6,55.8-0.1,43.3,0.1,27.4z M27.4,2.1C13.3,2.1,2.1,13.6,2.1,27.4c0,13.9,11.4,25.4,25.2,25.4c14.2,0,25.6-11.3,25.7-25.3
		C53,13.4,41.3,2,27.4,2.1z"/>
	<path class="st0" d="M7.2,27.2C7.2,15,17.1,7.5,27,7.4C38,7.2,47.2,16.1,47.2,27c0,11.1-8.3,19.7-19.3,20.1
		C17.4,47.5,7.3,39.3,7.2,27.2z M34.3,25.9c0.4-0.2,0.6-0.4,0.9-0.6c2.7-1.6,2.7-5.9,1.1-7.7c-1-1.1-2.4-1.6-3.8-1.9
		c-0.9-0.2-1.9-0.3-2.9-0.4c0-1.3,0-2.6,0-3.9c-1,0-2,0-3,0c0,1.3,0,2.6,0,3.8c-0.9,0-1.8,0-2.7,0c0-1.3,0-2.6,0-3.8
		c-1,0-1.9,0-2.9,0c0,1.3,0,2.6,0,3.9c-2.1,0-4.1,0-6.1,0c0,0.5,0,1,0,1.4c0.1,0.6,0.5,1,1.1,1c0.6,0,1.2,0,1.9,0.1
		c0.2,0,0.4,0.2,0.5,0.3c0.2,0.6,0.4,1.1,0.5,1.7c0,4.6,0,9.2,0,13.8c0,0.5-0.3,1-0.4,1.4c-0.1,0.3-0.4,0.4-0.8,0.4
		c-0.6,0-1.2,0-1.9,0c-0.5,0-0.9,0.4-0.9,0.9c0,0.6,0,1.2,0,1.9c2.1,0,4.1,0,6.2,0c0,1.5,0,2.9,0,4.4c1,0,1.9,0,2.9,0
		c0-1.5,0-2.9,0-4.3c0.9,0,1.8,0,2.7,0c0,1.5,0,2.9,0,4.4c1,0,1.9,0,3,0c0-1.5,0-2.9,0-4.3c0.3,0,0.5,0,0.6-0.1
		c1.5-0.3,3-0.5,4.5-0.8c1.5-0.4,2.9-1.2,3.7-2.6c1.5-2.5,1.2-6.9-3.1-8.5C35,26.1,34.7,26,34.3,25.9z"/>
	<path class="st1" d="M48.3,20.8c0.5-0.2,0.9-0.3,1.5-0.5c0.5,1.6,0.9,3.3,1.1,5.1c-0.6,0-1.2,0-1.7,0
		C48.9,23.8,48.6,22.3,48.3,20.8z"/>
	<path class="st2" d="M48.6,32.6c0.2-1.5,0.4-2.9,0.6-4.3c0.5,0,1.1,0.1,1.7,0.1c-0.1,1.6-0.4,3.1-0.8,4.7
		C49.6,32.9,49.1,32.8,48.6,32.6z"/>
	<path class="st2" d="M9,39.2c-0.4,0.3-0.9,0.6-1.4,1c-0.9-1.3-1.6-2.7-2.2-4.3c0.5-0.2,0.9-0.4,1.4-0.6C7.5,36.6,8.2,37.9,9,39.2z"
		/>
	<path class="st2" d="M41.7,46.1C41.6,46,41.6,46,41.6,46c-0.2-0.4-0.7-0.8-0.6-1.2c0-0.4,0.6-0.7,0.9-1c0.7-0.7,1.5-1.4,2.2-2.2
		c0.4,0.3,0.8,0.6,1.2,1C44.2,43.9,43,45,41.7,46.1z"/>
	<path class="st2" d="M4.9,20.2c0.5,0.2,1,0.4,1.5,0.5c-0.3,1.5-0.6,2.9-0.9,4.4c-0.5,0-1,0-1.6,0C4,23.4,4.4,21.8,4.9,20.2z"/>
	<path class="st1" d="M47.7,35.6c0.5,0.2,1,0.5,1.6,0.7c-0.7,1.3-1.4,2.6-2.1,3.9c-0.5-0.4-0.9-0.7-1.4-1C46.4,38,47,36.8,47.7,35.6
		z"/>
	<path class="st1" d="M6,32.5c-0.5,0.2-1,0.3-1.5,0.5c-0.4-1.5-0.7-3.1-0.7-4.7c0.5,0,1.1,0,1.5,0C5.6,29.7,5.8,31.1,6,32.5z"/>
	<path class="st1" d="M43.3,12.3c-0.9-0.8-1.9-1.8-3-2.8c0.3-0.4,0.6-0.8,1-1.4c1.1,1,2.2,2,3.3,3C44.1,11.6,43.7,11.9,43.3,12.3z"
		/>
	<path class="st1" d="M13.7,44.6c-0.3,0.4-0.6,0.9-1,1.4c-1-1.1-2.1-2.1-3.2-3.2c0.4-0.4,0.8-0.7,1.2-1
		C11.7,42.7,12.7,43.6,13.7,44.6z"/>
	<path class="st2" d="M45.2,14.5c0.4-0.3,0.9-0.6,1.4-1c0.7,1.2,1.4,2.4,2.1,3.7c-0.6,0.3-1,0.5-1.5,0.7
		C46.5,16.8,45.8,15.7,45.2,14.5z"/>
	<path class="st2" d="M32.4,48.6c0.1,0.6,0.2,1.1,0.3,1.7c-1.3,0.2-2.6,0.4-3.9,0.5c0-0.6-0.1-1.2-0.1-1.7
		C30,49,31.2,48.8,32.4,48.6z"/>
	<path class="st1" d="M25.7,49.1c0,0.6,0,1.1,0,1.8c-1.3-0.2-2.5-0.4-3.8-0.5c0.1-0.6,0.2-1.1,0.3-1.7
		C23.4,48.8,24.5,48.9,25.7,49.1z"/>
	<path class="st2" d="M25.7,5.6c-1.2,0.2-2.3,0.4-3.5,0.6C22.1,5.6,22,5,21.9,4.4c1.2-0.2,2.4-0.4,3.6-0.6C25.6,4.5,25.7,5,25.7,5.6
		z"/>
	<path class="st1" d="M28.6,3.8c1.3,0.2,2.5,0.4,3.7,0.6C32.2,5,32.1,5.5,32,6.1c-1.2-0.2-2.3-0.3-3.4-0.5C28.6,5,28.6,4.5,28.6,3.8
		z"/>
	<path class="st2" d="M12.8,8.6c0.4,0.5,0.7,1,1,1.4c-0.9,0.8-1.7,1.6-2.6,2.4c-0.4-0.3-0.7-0.7-1.2-1.1
		C10.9,10.4,11.8,9.6,12.8,8.6z"/>
	<path class="st1" d="M7.9,13.8c0.5,0.4,0.9,0.7,1.4,1c-0.6,1-1.2,2-1.8,3C7,17.6,6.5,17.4,6,17.1C6.6,16,7.2,14.9,7.9,13.8z"/>
	<path class="st1" d="M38.4,46.3c0.2,0.5,0.4,1,0.6,1.5c-1.1,0.5-2.2,1-3.3,1.6c-0.2-0.6-0.4-1.1-0.6-1.6
		C36.2,47.3,37.3,46.8,38.4,46.3z"/>
	<path class="st1" d="M19.3,7c-1.1,0.5-2.1,1-3.1,1.5c-0.2-0.5-0.4-1-0.7-1.5c1.1-0.5,2.2-1,3.3-1.6C18.9,6,19.1,6.5,19.3,7z"/>
	<path class="st2" d="M16,46.1c1,0.5,2,1,3,1.5c-0.1,0.5-0.3,1-0.5,1.6c-1.1-0.5-2.2-1.1-3.2-1.6C15.6,47.1,15.8,46.6,16,46.1z"/>
	<path class="st2" d="M35.3,5.3c1.1,0.5,2.2,0.9,3.2,1.4c-0.3,0.6-0.5,1-0.8,1.5c-1-0.4-1.9-0.9-2.9-1.3C35,6.4,35.2,5.9,35.3,5.3z"
		/>
	<path class="st2" d="M24.1,34.5c0-2.2,0-4.3,0-6.5c0,0,0-0.1,0.1-0.1c2,0,4-0.2,5.9,0.2c0.6,0.1,1.3,0.4,1.8,0.8
		c1.4,0.9,1.6,3.7-0.6,4.6c-1,0.4-2.1,0.6-3.2,0.7C26.9,34.4,25.5,34.4,24.1,34.5z"/>
	<path class="st2" d="M24.1,24.1c0-1.9,0-3.6,0-5.3c0,0,0.1-0.1,0.1-0.1c1.8-0.1,3.7-0.1,5.4,0.3c0.6,0.1,1.1,0.4,1.6,0.7
		c1.3,0.9,1.2,2.7-0.1,3.5c-0.5,0.3-1.2,0.6-1.8,0.6C27.6,24.1,25.9,24.1,24.1,24.1z"/>
</g>
<path class="st2" d="M76.2,39.8c-2.9-0.8-5.3-1.7-8-2.8c-0.4-0.2-0.9-0.3-1.4-0.3C62.3,36.3,58,33,58,26.4c0-6.1,3.8-10.6,9.9-10.6
	c6.2,0,9.6,4.7,9.6,10.2c0,4.6-2.1,7.8-4.8,9v0.1c1.6,0.4,3.3,0.8,4.9,1.1L76.2,39.8z M72.6,26.1c0-3.7-1.7-6.7-4.9-6.7
	c-3.1,0-4.9,3.1-4.9,6.8c0,3.8,1.8,6.8,4.9,6.8C70.8,33,72.6,30.1,72.6,26.1z"/>
<path class="st2" d="M85.1,17.6c0,1.3-1,2.3-2.5,2.3c-1.4,0-2.4-1-2.4-2.3c0-1.3,0.9-2.3,2.4-2.3S85.1,16.2,85.1,17.6z M80.4,36.3
	V21.6H85v14.7H80.4z"/>
<path class="st2" d="M92,21.6l2,6.8c0.4,1.2,0.6,2.4,0.8,3.6h0.1c0.2-1.2,0.5-2.3,0.8-3.6l1.9-6.8h4.8L97,36.3h-4.6l-5.3-14.7H92z"
	/>
<path class="st2" d="M118.5,28.8c0,5.4-3.8,7.8-7.7,7.8c-4.3,0-7.6-2.8-7.6-7.6s3.1-7.8,7.8-7.8C115.5,21.3,118.5,24.4,118.5,28.8z
	 M107.9,28.9c0,2.5,1,4.4,3,4.4c1.8,0,2.9-1.8,2.9-4.4c0-2.2-0.8-4.4-2.9-4.4C108.7,24.5,107.9,26.8,107.9,28.9z"/>
<path class="st2" d="M124.1,21.6l1.4,2.4c0.4,0.7,0.8,1.5,1.2,2.2h0.1c0.4-0.8,0.7-1.5,1.1-2.2l1.3-2.4h4.9l-4.8,7l4.9,7.7h-5.2
	l-1.5-2.6c-0.4-0.7-0.8-1.5-1.1-2.2h-0.1c-0.4,0.8-0.7,1.5-1.1,2.2l-1.4,2.6h-5l5-7.5l-4.9-7.2H124.1z"/>
<path class="st1" d="M139.7,21.6l1.4,2.4c0.4,0.7,0.8,1.5,1.2,2.2h0.1c0.4-0.8,0.7-1.5,1.1-2.2l1.3-2.4h4.9l-4.8,7l4.9,7.7h-5.2
	l-1.5-2.6c-0.4-0.7-0.8-1.5-1.1-2.2h-0.1c-0.4,0.8-0.7,1.5-1.1,2.2l-1.4,2.6h-5l5-7.5l-4.9-7.2H139.7z"/>
</svg>
